<mxfile host="app.diagrams.net" modified="2024-01-09T02:45:10.622Z" agent="Mozilla/5.0 (Windows NT 10.0; Win64; x64) AppleWebKit/537.36 (KHTML, like Gecko) Chrome/120.0.0.0 Safari/537.36" version="22.1.17" etag="aEKoVAzERJbA8uh3JNOM" type="github">
  <diagram name="Trang-1" id="xPJvqbDBZey4fl1fk4sk">
    <mxGraphModel>
      <root>
        <mxCell id="0" />
        <mxCell id="1" parent="0" />
      </root>
    </mxGraphModel>
  </diagram>
</mxfile>
